<svg width="4161" height="1810" xmlns="http://www.w3.org/2000/svg" xmlns:xlink="http://www.w3.org/1999/xlink" xml:space="preserve" overflow="hidden"><g transform="translate(-79 -78)"><rect x="1264.5" y="270.5" width="866" height="218" stroke="#172C51" stroke-width="4.58333" stroke-miterlimit="8" fill="none"/><text font-family="Calibri,Calibri_MSFontService,sans-serif" font-weight="400" font-size="67" transform="matrix(1 0 0 1 1297.49 361)">828 title and abstracts </text><text font-family="Calibri,Calibri_MSFontService,sans-serif" font-weight="400" font-size="67" transform="matrix(1 0 0 1 1297.49 441)">reviewed</text><rect x="126.5" y="389.5" width="984" height="544" stroke="#172C51" stroke-width="4.58333" stroke-miterlimit="8" fill="none"/><text font-family="Calibri,Calibri_MSFontService,sans-serif" font-weight="700" font-size="67" transform="matrix(1 0 0 1 158.667 483)">580 excluded</text><text font-family="Calibri,Calibri_MSFontService,sans-serif" font-weight="400" font-size="67" transform="matrix(1 0 0 1 248.042 563)">448 not studies of vaccine   </text><text font-family="Calibri,Calibri_MSFontService,sans-serif" font-weight="400" font-size="67" transform="matrix(1 0 0 1 367.667 643)">efficacy</text><text font-family="Calibri,Calibri_MSFontService,sans-serif" font-weight="400" font-size="67" transform="matrix(1 0 0 1 248.042 723)">104 methods, models or  </text><text font-family="Calibri,Calibri_MSFontService,sans-serif" font-weight="400" font-size="67" transform="matrix(1 0 0 1 367.667 802)">review papers</text><text font-family="Calibri,Calibri_MSFontService,sans-serif" font-weight="400" font-size="67" transform="matrix(1 0 0 1 278.292 882)">28 duplicates</text><rect x="1264.5" y="927.5" width="866" height="218" stroke="#172C51" stroke-width="4.58333" stroke-miterlimit="8" fill="none"/><text font-family="Calibri,Calibri_MSFontService,sans-serif" font-weight="400" font-size="67" transform="matrix(1 0 0 1 1297.49 1058)">248 full</text><text font-family="Calibri,Calibri_MSFontService,sans-serif" font-weight="400" font-size="67" transform="matrix(1 0 0 1 1499.73 1058)">-</text><text font-family="Calibri,Calibri_MSFontService,sans-serif" font-weight="400" font-size="67" transform="matrix(1 0 0 1 1520.35 1058)">text review</text><rect x="126.5" y="1022.5" width="984" height="854" stroke="#172C51" stroke-width="4.58333" stroke-miterlimit="8" fill="none"/><text font-family="Calibri,Calibri_MSFontService,sans-serif" font-weight="700" font-size="67" transform="matrix(1 0 0 1 158.667 1112)">125 excluded</text><text font-family="Calibri,Calibri_MSFontService,sans-serif" font-weight="400" font-size="67" transform="matrix(1 0 0 1 278.292 1192)">62 sample size &lt;1000</text><text font-family="Calibri,Calibri_MSFontService,sans-serif" font-weight="400" font-size="67" transform="matrix(1 0 0 1 278.292 1272)">39 Comparison group has </text><text font-family="Calibri,Calibri_MSFontService,sans-serif" font-weight="400" font-size="67" transform="matrix(1 0 0 1 367.667 1352)">previous </text><text font-family="Calibri,Calibri_MSFontService,sans-serif" font-weight="400" font-size="67" transform="matrix(1 0 0 1 613.402 1352)">infection or     </text><text font-family="Calibri,Calibri_MSFontService,sans-serif" font-weight="400" font-size="67" transform="matrix(1 0 0 1 367.667 1431)">vaccination</text><text font-family="Calibri,Calibri_MSFontService,sans-serif" font-weight="400" font-size="67" transform="matrix(1 0 0 1 278.292 1511)">22 Not mRNA vaccine RNA</text><text font-family="Calibri,Calibri_MSFontService,sans-serif" font-weight="400" font-size="67" transform="matrix(1 0 0 1 994.598 1511)">-</text><text font-family="Calibri,Calibri_MSFontService,sans-serif" font-weight="400" font-size="67" transform="matrix(1 0 0 1 367.667 1591)">specific estimates</text><text font-family="Calibri,Calibri_MSFontService,sans-serif" font-weight="400" font-size="67" transform="matrix(1 0 0 1 308.083 1671)">2 Outcome is severe </text><text font-family="Calibri,Calibri_MSFontService,sans-serif" font-weight="400" font-size="67" transform="matrix(1 0 0 1 367.667 1751)">disease conditional on </text><text font-family="Calibri,Calibri_MSFontService,sans-serif" font-weight="400" font-size="67" transform="matrix(1 0 0 1 367.667 1830)">infection</text><rect x="1264.5" y="1655.5" width="866" height="221" stroke="#172C51" stroke-width="4.58333" stroke-miterlimit="8" fill="none"/><text font-family="Calibri,Calibri_MSFontService,sans-serif" font-weight="400" font-size="67" transform="matrix(1 0 0 1 1297.49 1788)">123 studies included</text><rect x="2404.5" y="270.5" width="984" height="218" stroke="#172C51" stroke-width="4.58333" stroke-miterlimit="8" fill="none"/><text font-family="Calibri,Calibri_MSFontService,sans-serif" font-weight="400" font-size="67" transform="matrix(1 0 0 1 2437.46 401)">1895 estimates included</text><rect x="3086.5" y="674.5" width="1151" height="794" stroke="#172C51" stroke-width="4.58333" stroke-miterlimit="8" fill="none"/><text font-family="Calibri,Calibri_MSFontService,sans-serif" font-weight="700" font-size="67" transform="matrix(1 0 0 1 3125.85 774)">149 excluded</text><text font-family="Calibri,Calibri_MSFontService,sans-serif" font-weight="400" font-size="67" transform="matrix(1 0 0 1 3245.48 854)">16 Comparison group has previous </text><text font-family="Calibri,Calibri_MSFontService,sans-serif" font-weight="400" font-size="67" transform="matrix(1 0 0 1 3334.85 934)">infection or vaccination</text><text font-family="Calibri,Calibri_MSFontService,sans-serif" font-weight="400" font-size="67" transform="matrix(1 0 0 1 3245.48 1014)">61 Don’t report confidence</text><text font-family="Calibri,Calibri_MSFontService,sans-serif" font-weight="400" font-size="67" transform="matrix(1 0 0 1 3989.61 1014)">interval</text><text font-family="Calibri,Calibri_MSFontService,sans-serif" font-weight="400" font-size="67" transform="matrix(1 0 0 1 3245.48 1093)">51 Removed due to overlapping   </text><text font-family="Calibri,Calibri_MSFontService,sans-serif" font-weight="400" font-size="67" transform="matrix(1 0 0 1 3334.85 1173)">age groups or time periods</text><text font-family="Calibri,Calibri_MSFontService,sans-serif" font-weight="400" font-size="67" transform="matrix(1 0 0 1 3275.27 1253)">6 Outcome is severe disease </text><text font-family="Calibri,Calibri_MSFontService,sans-serif" font-weight="400" font-size="67" transform="matrix(1 0 0 1 3334.85 1333)">conditional </text><text font-family="Calibri,Calibri_MSFontService,sans-serif" font-weight="400" font-size="67" transform="matrix(1 0 0 1 3652.85 1333)">on infection</text><text font-family="Calibri,Calibri_MSFontService,sans-serif" font-weight="400" font-size="67" transform="matrix(1 0 0 1 3258.77 1413)">2 Infection since most recent dose</text><rect x="2404.5" y="1655.5" width="984" height="221" stroke="#172C51" stroke-width="4.58333" stroke-miterlimit="8" fill="none"/><text font-family="Calibri,Calibri_MSFontService,sans-serif" font-weight="400" font-size="67" transform="matrix(1 0 0 1 2498.48 1748)">1756 estimates used in meta</text><text font-family="Calibri,Calibri_MSFontService,sans-serif" font-weight="400" font-size="67" transform="matrix(1 0 0 1 3273.82 1748)">-</text><text font-family="Calibri,Calibri_MSFontService,sans-serif" font-weight="400" font-size="67" transform="matrix(1 0 0 1 2790.78 1828)">analysis</text><path d="M1699.79 488.5 1699.79 903.774 1695.21 903.774 1695.21 488.5ZM1711.25 899.191 1697.5 926.691 1683.75 899.191Z"/><path d="M1699.79 1145.5 1699.79 1632.57 1695.21 1632.57 1695.21 1145.5ZM1711.25 1627.99 1697.5 1655.49 1683.75 1627.99Z"/><path d="M1.41055e-06-2.29167 563.41-2.29132 563.41 2.29201-1.41055e-06 2.29167ZM558.827-13.7497 586.327 0.000360892 558.827 13.7503Z" transform="matrix(-1 0 0 1 1696.83 736.5)"/><path d="M1696.82 1403.73 1133.41 1401.87 1133.42 1397.28 1696.83 1399.14ZM1137.95 1413.34 1110.5 1399.5 1138.05 1385.84Z"/><path d="M2898.79 488.5 2898.79 1632.48 2894.21 1632.48 2894.21 488.5ZM2910.25 1627.89 2896.5 1655.39 2882.75 1627.89Z"/><path d="M0.0211678-2.29157 166.591-0.752918 166.549 3.83022-0.0211678 2.29157ZM162.114-12.2531 189.486 1.75033 161.86 15.2457Z" transform="matrix(1 0 0 -1 2896.5 1073.25)"/><path d="M0-2.29167 18.3333-2.29167 18.3333 2.29167 0 2.29167ZM32.0833-2.29167 50.4167-2.29167 50.4167 2.29167 32.0833 2.29167ZM64.1667-2.29167 82.5-2.29167 82.5 2.29167 64.1667 2.29167ZM96.25-2.29167 114.583-2.29167 114.583 2.29167 96.25 2.29167ZM128.333-2.29167 139.341-2.29167 139.341 9.61778 134.757 9.61778 134.757 0 137.049 2.29167 128.333 2.29167ZM139.341 23.3678 139.341 41.7011 134.757 41.7011 134.757 23.3678ZM139.341 55.4511 139.341 73.7844 134.757 73.7844 134.757 55.4511ZM139.341 87.5344 139.341 105.868 134.757 105.868 134.757 87.5344ZM139.341 119.618 139.341 137.951 134.757 137.951 134.757 119.618ZM139.341 151.701 139.341 170.034 134.757 170.034 134.757 151.701ZM139.341 183.784 139.341 202.118 134.757 202.118 134.757 183.784ZM139.341 215.868 139.341 234.201 134.757 234.201 134.757 215.868ZM139.341 247.951 139.341 266.284 134.757 266.284 134.757 247.951ZM139.341 280.034 139.341 298.368 134.757 298.368 134.757 280.034ZM139.341 312.118 139.341 330.451 134.757 330.451 134.757 312.118ZM139.341 344.201 139.341 362.534 134.757 362.534 134.757 344.201ZM139.341 376.284 139.341 394.618 134.757 394.618 134.757 376.284ZM139.341 408.368 139.341 426.701 134.757 426.701 134.757 408.368ZM139.341 440.451 139.341 458.784 134.757 458.784 134.757 440.451ZM139.341 472.534 139.341 490.868 134.757 490.868 134.757 472.534ZM139.341 504.618 139.341 522.951 134.757 522.951 134.757 504.618ZM139.341 536.701 139.341 555.034 134.757 555.034 134.757 536.701ZM139.341 568.784 139.341 587.118 134.757 587.118 134.757 568.784ZM139.341 600.868 139.341 619.201 134.757 619.201 134.757 600.868ZM139.341 632.951 139.341 651.284 134.757 651.284 134.757 632.951ZM139.341 665.034 139.341 683.368 134.757 683.368 134.757 665.034ZM139.341 697.118 139.341 715.451 134.757 715.451 134.757 697.118ZM139.341 729.201 139.341 747.534 134.757 747.534 134.757 729.201ZM139.341 761.284 139.341 779.618 134.757 779.618 134.757 761.284ZM139.341 793.368 139.341 811.701 134.757 811.701 134.757 793.368ZM139.341 825.451 139.341 843.784 134.757 843.784 134.757 825.451ZM139.341 857.534 139.341 875.868 134.757 875.868 134.757 857.534ZM139.341 889.618 139.341 907.951 134.757 907.951 134.757 889.618ZM139.341 921.701 139.341 940.034 134.757 940.034 134.757 921.701ZM139.341 953.784 139.341 972.118 134.757 972.118 134.757 953.784ZM139.341 985.868 139.341 1004.2 134.757 1004.2 134.757 985.868ZM139.341 1017.95 139.341 1036.28 134.757 1036.28 134.757 1017.95ZM139.341 1050.03 139.341 1068.37 134.757 1068.37 134.757 1050.03ZM139.341 1082.12 139.341 1100.45 134.757 1100.45 134.757 1082.12ZM139.341 1114.2 139.341 1132.53 134.757 1132.53 134.757 1114.2ZM139.341 1146.28 139.341 1164.62 134.757 1164.62 134.757 1146.28ZM139.341 1178.37 139.341 1196.7 134.757 1196.7 134.757 1178.37ZM139.341 1210.45 139.341 1228.78 134.757 1228.78 134.757 1210.45ZM139.341 1242.53 139.341 1260.87 134.757 1260.87 134.757 1242.53ZM139.341 1274.62 139.341 1292.95 134.757 1292.95 134.757 1274.62ZM139.341 1306.7 139.341 1325.03 134.757 1325.03 134.757 1306.7ZM139.341 1338.78 139.341 1357.12 134.757 1357.12 134.757 1338.78ZM139.341 1370.87 139.341 1386.58 137.049 1384.29 139.673 1384.29 139.673 1388.87 134.757 1388.87 134.757 1370.87ZM153.423 1384.29 171.756 1384.29 171.756 1388.87 153.423 1388.87ZM185.506 1384.29 203.839 1384.29 203.839 1388.87 185.506 1388.87ZM217.589 1384.29 235.923 1384.29 235.923 1388.87 217.589 1388.87ZM249.673 1384.29 251.181 1384.29 251.181 1388.87 249.673 1388.87ZM246.598 1372.83 274.098 1386.58 246.598 1400.33Z" transform="matrix(1 0 0 -1 2130.5 1766.08)"/><text font-family="Calibri,Calibri_MSFontService,sans-serif" font-weight="700" font-size="100" transform="matrix(1 0 0 1 139.016 218)">A</text><text font-family="Calibri,Calibri_MSFontService,sans-serif" font-weight="400" font-size="100" transform="matrix(1 0 0 1 222.089 218)">Study</text><text font-family="Calibri,Calibri_MSFontService,sans-serif" font-weight="400" font-size="100" transform="matrix(1 0 0 1 451.829 218)">-</text><text font-family="Calibri,Calibri_MSFontService,sans-serif" font-weight="400" font-size="100" transform="matrix(1 0 0 1 482.193 218)">level screening</text><text font-family="Calibri,Calibri_MSFontService,sans-serif" font-weight="700" font-size="100" transform="matrix(1 0 0 1 2413.38 201)">B</text><text font-family="Calibri,Calibri_MSFontService,sans-serif" font-weight="400" font-size="100" transform="matrix(1 0 0 1 2491.86 201)">Estimate</text><text font-family="Calibri,Calibri_MSFontService,sans-serif" font-weight="400" font-size="100" transform="matrix(1 0 0 1 2842.81 201)">-</text><text font-family="Calibri,Calibri_MSFontService,sans-serif" font-weight="400" font-size="100" transform="matrix(1 0 0 1 2873.18 201)">level screening</text></g></svg>